<?xml version="1.0" standalone="no"?>
<!DOCTYPE svg PUBLIC "-//W3C//DTD SVG 20010904//EN"
 "http://www.w3.org/TR/2001/REC-SVG-20010904/DTD/svg10.dtd">
<svg version="1.0" xmlns="http://www.w3.org/2000/svg"
 width="116.000000pt" height="186.000000pt" viewBox="0 0 116.000000 186.000000"
 preserveAspectRatio="xMidYMid meet">

<g transform="translate(0.000000,186.000000) scale(0.100000,-0.100000)"
fill="#000000" stroke="none">
<path d="M450 1839 c-30 -5 -56 -14 -58 -19 -2 -6 -9 -10 -15 -10 -18 0 -46
-31 -40 -46 3 -8 -1 -14 -10 -14 -8 0 -18 -12 -21 -26 -4 -15 -10 -24 -13 -20
-3 3 -43 -59 -88 -138 -68 -121 -85 -160 -103 -240 -43 -188 -57 -366 -42
-543 12 -140 48 -318 78 -385 39 -89 164 -295 204 -338 l41 -45 211 0 c116 0
228 4 249 8 36 8 41 13 76 90 21 45 56 112 79 149 71 115 89 160 115 278 59
264 57 534 -5 790 -24 95 -37 125 -116 258 -33 55 -56 108 -58 130 -8 76 -11
81 -68 97 -119 35 -290 44 -416 24z m188 -36 c-10 -2 -28 -2 -40 0 -13 2 -5 4
17 4 22 1 32 -1 23 -4z m32 -35 c0 -4 -30 -8 -67 -8 -49 0 -64 3 -53 10 18 12
120 10 120 -2z m4 -33 c-5 -11 -22 -15 -70 -15 -82 0 -83 18 -1 23 34 2 65 4
69 5 4 1 5 -5 2 -13z m-353 -18 c-10 -9 -11 -8 -5 6 3 10 9 15 12 12 3 -3 0
-11 -7 -18z m349 -27 c0 -6 -28 -10 -65 -10 -37 0 -65 4 -65 10 0 6 28 10 65
10 37 0 65 -4 65 -10z m0 -40 c0 -6 -28 -10 -65 -10 -37 0 -65 4 -65 10 0 6
28 10 65 10 37 0 65 -4 65 -10z m-2 -72 l-3 -33 -60 0 -60 0 -3 33 -3 32 66 0
66 0 -3 -32z m192 -139 c35 -5 67 -15 71 -20 3 -5 13 -7 22 -3 9 3 17 1 17 -4
0 -6 10 -13 23 -15 12 -2 0 -5 -28 -6 -38 -2 -45 -4 -30 -11 11 -5 32 -9 48
-9 15 -1 27 -5 27 -9 0 -5 -26 -7 -57 -6 l-58 3 70 -19 c54 -14 63 -19 37 -19
-35 -1 -36 -21 -1 -21 11 0 18 -4 14 -10 -3 -5 -12 -7 -19 -4 -8 3 -17 1 -21
-5 -3 -7 2 -11 14 -11 11 0 23 -5 27 -11 4 -6 -1 -9 -13 -7 -28 4 -29 -16 -1
-24 l23 -6 -22 -1 c-29 -1 -31 -31 -3 -31 11 0 20 -5 20 -11 0 -6 -9 -8 -20
-4 -16 5 -20 2 -20 -14 0 -14 6 -21 20 -21 11 0 20 -4 20 -9 0 -5 -8 -8 -17
-7 -12 1 -18 -6 -18 -19 0 -15 8 -21 33 -23 17 -2 32 -7 32 -11 0 -5 -16 -6
-36 -4 -32 3 -35 1 -32 -19 2 -17 10 -23 32 -25 42 -3 45 -13 4 -13 -30 0 -34
-3 -33 -22 1 -18 10 -24 36 -29 31 -6 28 -8 -20 -13 -8 0 -15 -11 -16 -23 -1
-18 4 -23 23 -23 14 0 22 -3 18 -7 -4 -4 -15 -8 -24 -8 -10 0 -18 -9 -20 -22
-3 -19 2 -23 25 -24 28 -1 28 -1 3 -8 -16 -4 -26 -15 -28 -30 -3 -20 0 -23 17
-18 12 3 21 1 21 -4 0 -5 -9 -9 -20 -9 -14 0 -20 -7 -20 -21 0 -16 5 -20 20
-16 11 3 20 1 20 -4 0 -5 -9 -9 -20 -9 -28 0 -25 -30 3 -31 l22 -2 -22 -4
c-13 -2 -23 -11 -23 -20 0 -10 6 -14 20 -10 11 3 20 1 20 -4 0 -5 -9 -9 -20
-9 -27 0 -25 -18 3 -22 12 -2 -21 -11 -73 -20 l-95 -16 73 1 c85 2 95 -9 17
-18 -75 -10 -70 -22 8 -18 l62 2 -58 -13 c-84 -19 -83 -29 3 -23 72 6 61 -6
-15 -16 -26 -3 -30 -8 -33 -40 -2 -21 1 -37 7 -37 6 0 11 7 11 15 0 8 6 15 14
15 8 0 13 -8 12 -17 -2 -13 -14 -19 -45 -21 l-43 -3 4 55 c1 31 0 56 -4 56 -7
0 -12 -57 -11 -107 0 -6 -18 -13 -43 -15 -40 -3 -43 -1 -48 26 -8 39 -68 94
-112 102 -74 14 -157 -38 -170 -105 -5 -24 -9 -26 -44 -23 -36 4 -38 6 -46 45
l-8 42 -4 -37 c-3 -32 -7 -38 -25 -37 -18 1 -19 2 -4 6 10 3 17 9 15 15 -2 5
-8 8 -13 6 -5 -2 -12 10 -15 26 -4 25 -10 30 -40 34 -61 6 -55 20 6 16 77 -6
53 12 -28 21 -32 4 -58 10 -58 14 0 4 25 4 55 1 69 -8 94 5 28 14 -137 18
-152 30 -25 21 50 -4 92 -5 92 -2 0 3 -40 11 -90 18 -50 6 -90 15 -90 19 0 4
14 6 30 4 17 -2 30 1 30 6 0 6 -12 10 -27 11 -16 0 -37 4 -48 9 -15 6 -8 9 28
9 57 1 55 21 -1 21 -20 0 -44 5 -52 11 -11 7 1 9 43 6 71 -6 75 15 4 23 -65 8
-73 23 -9 19 43 -3 52 -1 52 13 0 13 -12 17 -57 20 -33 2 -61 -1 -65 -7 -4 -5
-8 -1 -8 10 0 19 5 20 65 15 58 -5 65 -3 65 12 0 21 -16 24 -23 6 -3 -8 -6 -6
-6 5 -1 13 -11 17 -48 18 -27 1 -51 1 -56 0 -13 -2 -7 230 8 334 17 115 45
227 58 236 18 12 163 40 257 49 110 10 356 4 450 -11z m160 -853 c0 -3 -4 -8
-10 -11 -5 -3 -10 -1 -10 4 0 6 5 11 10 11 6 0 10 -2 10 -4z m-44 -105 c-7
-11 -66 -20 -66 -10 0 4 12 10 28 12 15 2 31 5 35 6 5 0 6 -3 3 -8z m-679 -7
c-3 -3 -12 -4 -19 -1 -8 3 -5 6 6 6 11 1 17 -2 13 -5z m368 -30 c13 -8 26 -23
30 -32 5 -14 4 -14 -12 0 -10 8 -25 19 -33 23 -12 6 -12 5 -3 -5 6 -7 9 -18 7
-25 -3 -7 0 -16 7 -21 9 -5 10 -2 6 10 -4 10 -3 15 3 11 6 -3 10 -23 10 -43 0
-26 -3 -33 -11 -25 -14 14 -49 -14 -49 -39 0 -27 -46 -23 -75 7 -34 33 -33 75
3 110 27 28 13 26 -20 -3 -10 -9 -18 -10 -18 -4 0 6 12 20 26 31 32 25 94 28
129 5z"/>
<path d="M410 1421 c0 -5 12 -12 28 -14 26 -4 26 -4 -4 -6 -19 0 -34 -8 -38
-17 -9 -22 -8 -24 9 -24 8 0 15 4 15 9 0 5 12 11 28 13 19 2 27 9 27 23 0 15
-8 21 -32 23 -18 2 -33 -1 -33 -7z"/>
<path d="M500 1420 c0 -5 11 -10 25 -10 14 0 25 5 25 10 0 6 -11 10 -25 10
-14 0 -25 -4 -25 -10z"/>
<path d="M580 1420 c0 -5 7 -10 15 -10 8 0 15 5 15 10 0 6 -7 10 -15 10 -8 0
-15 -4 -15 -10z"/>
<path d="M680 1420 c0 -5 9 -10 20 -10 11 0 20 5 20 10 0 6 -9 10 -20 10 -11
0 -20 -4 -20 -10z"/>
<path d="M750 1421 c0 -5 10 -12 23 -14 20 -4 19 -4 -4 -6 -18 -1 -28 -8 -32
-21 -6 -22 12 -27 31 -8 9 9 12 9 12 0 0 -7 8 -12 18 -12 13 0 18 8 17 33 0
29 -3 32 -32 35 -18 2 -33 -1 -33 -7z"/>
<path d="M490 1385 c0 -33 57 -30 68 3 2 8 -9 12 -32 12 -26 0 -36 -4 -36 -15z"/>
<path d="M567 1380 c-4 -17 0 -20 29 -20 19 0 34 5 34 10 0 6 -7 10 -15 10 -8
0 -15 5 -15 10 0 19 -28 10 -33 -10z"/>
<path d="M650 1380 c-8 -16 -8 -20 4 -20 8 0 18 5 22 11 4 8 9 8 17 0 17 -17
27 -13 27 9 0 16 -7 20 -30 20 -19 0 -33 -7 -40 -20z"/>
<path d="M895 1390 c3 -5 8 -10 11 -10 2 0 4 5 4 10 0 6 -5 10 -11 10 -5 0 -7
-4 -4 -10z"/>
<path d="M328 1323 c7 -3 16 -2 19 1 4 3 -2 6 -13 5 -11 0 -14 -3 -6 -6z"/>
<path d="M490 1320 c0 -5 7 -7 15 -4 8 4 15 8 15 10 0 2 -7 4 -15 4 -8 0 -15
-4 -15 -10z"/>
<path d="M698 1323 c7 -3 16 -2 19 1 4 3 -2 6 -13 5 -11 0 -14 -3 -6 -6z"/>
<path d="M760 1321 c0 -4 11 -6 25 -3 14 2 25 6 25 8 0 2 -11 4 -25 4 -14 0
-25 -4 -25 -9z"/>
<path d="M820 1326 c0 -2 7 -6 15 -10 8 -3 15 -1 15 4 0 6 -7 10 -15 10 -8 0
-15 -2 -15 -4z"/>
<path d="M860 1320 c0 -13 11 -13 30 0 12 8 11 10 -7 10 -13 0 -23 -4 -23 -10z"/>
<path d="M885 1291 c58 -6 60 -7 63 -36 l3 -30 -63 1 c-55 1 -56 0 -11 -3 l52
-4 3 -183 c2 -124 0 -182 -7 -179 -6 2 -25 -16 -42 -41 -17 -24 -62 -69 -99
-100 -59 -49 -74 -56 -110 -56 -24 0 -46 -5 -49 -10 -4 -7 49 -10 162 -8 l168
3 2 328 2 327 -67 -2 -67 -1 60 -6z"/>
<path d="M330 1248 c0 -7 11 -13 25 -13 14 0 25 6 25 13 0 6 -11 12 -25 12
-14 0 -25 -6 -25 -12z"/>
<path d="M416 1251 c-3 -5 5 -11 19 -13 17 -4 25 -1 25 8 0 15 -36 19 -44 5z"/>
<path d="M500 1247 c0 -17 42 -15 48 1 2 7 -7 12 -22 12 -15 0 -26 -6 -26 -13z"/>
<path d="M673 1223 c9 -2 25 -2 35 0 9 3 1 5 -18 5 -19 0 -27 -2 -17 -5z"/>
<path d="M753 1223 c9 -2 25 -2 35 0 9 3 1 5 -18 5 -19 0 -27 -2 -17 -5z"/>
<path d="M472 1128 c-16 -16 -15 -28 3 -28 8 0 15 9 15 20 0 23 -2 24 -18 8z"/>
<path d="M500 1120 c0 -15 5 -20 18 -18 9 2 17 10 17 18 0 8 -8 16 -17 18 -13
2 -18 -3 -18 -18z"/>
<path d="M640 1126 c-20 -20 -9 -28 35 -24 l45 3 0 -42 c0 -38 -3 -43 -22 -44
-13 -1 -27 -1 -32 0 -24 5 -36 -25 -36 -88 l0 -66 66 -3 c63 -3 65 -2 62 20
-3 20 -8 23 -48 21 l-45 -1 0 42 c0 43 0 43 35 42 29 -1 37 4 48 27 15 31 8
102 -11 114 -18 12 -85 11 -97 -1z"/>
<path d="M780 1120 c0 -17 7 -20 44 -20 l43 0 -22 -44 c-17 -33 -23 -64 -24
-120 -1 -75 -1 -76 24 -76 25 0 25 1 23 83 -1 69 2 88 20 117 12 19 22 45 22
58 0 21 -4 22 -65 22 -58 0 -65 -2 -65 -20z"/>
<path d="M500 1064 c0 -14 5 -35 11 -46 6 -11 7 -18 2 -15 -5 3 -10 -28 -12
-69 -2 -68 0 -75 16 -72 16 3 18 15 19 98 1 52 -1 103 -3 113 -7 27 -33 21
-33 -9z"/>
<path d="M206 1045 c-3 -8 -1 -15 4 -15 6 0 10 7 10 15 0 8 -2 15 -4 15 -2 0
-6 -7 -10 -15z"/>
<path d="M207 990 c-3 -11 -1 -20 4 -20 5 0 9 9 9 20 0 11 -2 20 -4 20 -2 0
-6 -9 -9 -20z"/>
<path d="M90 925 c0 -10 9 -15 28 -14 23 2 24 2 4 6 -12 2 -20 9 -17 14 4 5 1
9 -4 9 -6 0 -11 -7 -11 -15z"/>
<path d="M151 924 c0 -11 3 -14 6 -6 3 7 2 16 -1 19 -3 4 -6 -2 -5 -13z"/>
<path d="M204 920 c0 -11 4 -20 8 -20 4 0 8 9 8 20 0 11 -4 20 -8 20 -4 0 -8
-9 -8 -20z"/>
<path d="M170 910 c0 -5 5 -10 11 -10 5 0 7 5 4 10 -3 6 -8 10 -11 10 -2 0 -4
-4 -4 -10z"/>
<path d="M272 890 c0 -14 2 -19 5 -12 2 6 2 18 0 25 -3 6 -5 1 -5 -13z"/>
<path d="M90 870 c0 -17 7 -20 50 -20 38 0 50 4 50 15 0 8 -4 15 -10 15 -5 0
-10 -6 -10 -12 0 -10 -3 -9 -9 1 -7 11 -9 11 -14 0 -4 -10 -6 -9 -6 4 -1 26
-51 24 -51 -3z"/>
<path d="M200 866 c0 -8 5 -18 10 -21 6 -3 10 3 10 14 0 12 -4 21 -10 21 -5 0
-10 -6 -10 -14z"/>
<path d="M640 842 c0 -15 38 -44 51 -40 9 3 6 11 -9 26 -22 22 -42 29 -42 14z"/>
<path d="M563 813 c-21 -8 -15 -48 12 -73 l25 -24 28 21 c29 22 38 49 22 73
-8 12 -13 13 -29 3 -13 -8 -22 -9 -26 -3 -7 11 -13 11 -32 3z"/>
<path d="M250 677 c0 -14 5 -29 10 -32 7 -4 8 3 4 22 -9 38 -14 42 -14 10z"/>
<path d="M553 613 c-15 -5 -18 -43 -4 -43 5 0 11 7 15 15 3 8 15 15 26 15 11
0 20 -7 20 -15 0 -8 5 -15 10 -15 6 0 10 7 10 15 0 8 5 15 10 15 6 0 10 -7 10
-15 0 -8 5 -15 10 -15 15 0 12 40 -2 41 -7 0 -31 2 -53 3 -22 2 -46 1 -52 -1z"/>
<path d="M840 550 c0 -5 5 -10 10 -10 6 0 10 5 10 10 0 6 -4 10 -10 10 -5 0
-10 -4 -10 -10z"/>
<path d="M770 445 c0 -19 4 -35 8 -35 4 0 6 16 4 35 -2 19 -6 35 -8 35 -2 0
-4 -16 -4 -35z"/>
<path d="M428 435 c-3 -14 -1 -25 3 -25 5 0 9 11 9 25 0 14 -2 25 -4 25 -2 0
-6 -11 -8 -25z"/>
<path d="M315 1800 c-26 -28 -15 -31 12 -3 12 13 19 23 14 23 -4 0 -16 -9 -26
-20z"/>
</g>
</svg>
